<svg xmlns="http://www.w3.org/2000/svg" aria-hidden="true" style="position:absolute;width:0;height:0;overflow:hidden">
  <defs>
    <symbol id="icon-delete" viewBox="0 0 32 32">
      <path fill="none" stroke="#e85050" stroke-linecap="round" stroke-linejoin="round" stroke-width="2.6" d="M4 8h24M25.333 8v18.667a2.668 2.668 0 0 1-2.667 2.667H9.333a2.668 2.668 0 0 1-2.667-2.667V8m4.001 0V5.333a2.668 2.668 0 0 1 2.667-2.667h5.333a2.668 2.668 0 0 1 2.667 2.667V8M13.333 14.667v8M18.667 14.667v8" style="stroke:var(--color1, #e85050)"/>
    </symbol>
    <symbol id="icon-edit" viewBox="0 0 32 32">
      <path fill="none" stroke="#59b17a" stroke-linecap="round" stroke-linejoin="round" stroke-width="2.6" d="M22.67 4.002a3.76 3.76 0 0 1 2.667-1.104 3.779 3.779 0 0 1 2.666 1.104 3.766 3.766 0 0 1 .817 4.109 3.756 3.756 0 0 1-.817 1.223l-18 18-7.333 2 2-7.333 18-18z" style="stroke:var(--color2, #59b17a)"/>
    </symbol>
  </defs>
</svg>
